<svg width="1728" height="691" viewBox="0 0 1728 691" fill="none" xmlns="http://www.w3.org/2000/svg">
<path d="M-22.7576 674.153C10.6302 647.409 55.6124 667.144 96.578 653.801C138.703 639.938 135.57 621.966 192.323 602.53C228.191 590.192 342.325 631.715 380.69 629.505C426.832 626.716 446.487 597.639 492.642 602.644C520.183 605.665 547.574 608.705 575.115 611.727" stroke="url(#paint0_linear_267_221)" stroke-miterlimit="10"/>
<path d="M-24.4727 661.742C-2.3149 643.92 25.1925 646.695 53.0588 646.533C66.9162 646.461 80.8209 645.629 94.3753 641.193C136.385 627.592 134.009 609.522 190.161 591.287C201.361 587.643 219.62 589.293 240.613 592.871C285.146 600.592 341.597 616.404 371.606 617.235C374.081 617.308 376.388 617.275 378.526 617.138C416.216 614.508 436.565 594.771 468.001 590.396C474.952 589.414 482.478 589.242 490.765 590.108C518.29 593.007 545.849 596.152 573.391 599.175" stroke="url(#paint1_linear_267_221)" stroke-miterlimit="10"/>
<path d="M-26.1895 649.327C-4.16557 631.643 23.1732 634.314 51.0226 634.028C64.7287 633.975 78.6342 633.142 92.2061 628.828C133.948 615.508 132.463 597.198 188.031 580.287C199.266 576.89 217.543 578.664 238.403 582.384C283.139 590.46 339.098 604.954 369.492 605.235C371.968 605.307 374.274 605.275 376.395 605.013C413.865 601.907 434.569 582.498 466.006 578.122C472.957 577.14 480.465 576.844 488.753 577.71C516.412 580.467 543.971 583.613 571.531 586.76" stroke="url(#paint2_linear_267_221)" stroke-miterlimit="10"/>
<path d="M-27.9044 636.915C-5.88015 619.226 21.2902 621.792 48.9885 621.525C62.6948 621.472 76.4315 620.534 90.0209 616.343C131.477 603.181 130.919 584.877 185.869 569.045C197.273 565.752 215.45 567.917 236.176 571.78C281.268 580.192 336.583 593.384 367.362 593.115C369.82 593.063 372.127 593.031 374.265 592.893C411.381 589.452 432.44 570.372 464.163 565.834C471.114 564.851 478.622 564.555 486.91 565.421C514.552 568.055 542.13 571.327 569.975 574.313" stroke="url(#paint3_linear_267_221)" stroke-miterlimit="10"/>
<path d="M-29.6368 624.379C-7.74643 606.828 19.3898 609.147 46.9543 609.022C60.492 608.864 74.3975 608.031 87.8357 603.857C129.024 590.976 129.375 572.554 183.724 557.925C195.314 554.86 213.358 557.167 233.95 561.175C279.246 569.941 334.068 581.813 365.233 580.993C367.692 580.941 369.998 580.909 372.119 580.647C409.014 576.729 430.429 557.977 462.152 553.437C469.254 552.436 476.763 552.14 485.034 552.883C512.81 555.375 540.388 558.647 568.251 561.758" stroke="url(#paint4_linear_267_221)" stroke-miterlimit="10"/>
<path d="M-31.3514 611.963C-9.59495 594.549 17.5243 596.745 44.9203 596.515C58.4582 596.357 72.195 595.419 85.6506 591.368C126.571 578.768 127.848 560.354 181.58 546.805C193.339 543.844 211.282 546.542 231.741 550.693C277.241 559.814 331.57 570.364 363.121 568.993C365.579 568.941 367.868 568.785 369.989 568.524C406.682 564.251 428.451 545.829 460.158 541.164C467.26 540.163 474.769 539.866 483.039 540.609C510.95 542.96 538.546 546.357 566.409 549.468" stroke="url(#paint5_linear_267_221)" stroke-miterlimit="10"/>
<path d="M-33.0666 599.551C-11.4612 582.151 15.4897 584.242 42.8861 584.012C56.4242 583.854 70.0096 582.934 83.4653 578.882C124.101 566.439 126.456 548.013 179.435 535.685C191.229 532.971 209.207 535.917 229.514 540.088C275.218 549.565 329.055 558.794 360.991 556.871C363.432 556.696 365.722 556.539 367.843 556.278C404.332 551.651 426.44 533.433 458.147 528.767C465.249 527.765 472.91 527.45 481.163 528.07C509.057 530.297 536.67 533.818 564.837 536.894" stroke="url(#paint6_linear_267_221)" stroke-miterlimit="10"/>
<path d="M-34.7809 587.131C-13.158 569.85 13.6068 571.714 40.852 571.502C54.2387 571.362 67.9763 570.424 81.2808 566.389C121.666 554.352 124.929 535.81 177.29 524.563C189.252 521.954 207.114 525.167 227.305 529.605C273.213 539.437 326.423 547.486 359.048 544.973C361.489 544.798 363.778 544.642 365.899 544.38C402.168 539.276 424.631 521.388 456.49 516.702C463.743 515.681 471.235 515.261 479.506 516.004C507.552 518.214 535.148 521.612 563.315 524.688" stroke="url(#paint7_linear_267_221)" stroke-miterlimit="10"/>
<path d="M-36.496 574.719C-15.0243 557.452 11.7409 559.316 38.8177 558.999C52.2046 558.859 65.7735 557.815 79.0954 553.903C119.195 542.024 123.554 523.592 175.145 513.445C187.294 511.064 205.039 514.545 225.079 519.003C271.191 529.191 323.907 535.917 356.918 532.852C359.359 532.676 361.631 532.396 363.752 532.134C399.667 526.694 422.636 509.117 454.478 504.305C461.715 503.16 469.224 502.864 477.478 503.483C505.507 505.569 533.272 509.074 561.44 512.151" stroke="url(#paint8_linear_267_221)" stroke-miterlimit="10"/>
<path d="M-38.2287 562.187C-16.8909 545.057 9.68867 546.692 36.7658 546.375C50.0015 546.254 63.5703 545.21 76.8925 541.296C116.725 529.699 122.161 511.254 172.831 502.226C185.166 500.073 202.795 503.822 222.683 508.3C269.168 518.949 321.223 524.247 354.62 520.629C357.043 520.329 359.333 520.173 361.436 519.787C397.148 513.992 420.455 496.619 452.298 491.806C459.535 490.661 467.195 490.346 475.432 490.842C503.595 492.786 531.361 496.291 559.546 499.493" stroke="url(#paint9_linear_267_221)" stroke-miterlimit="10"/>
<path d="M-39.9433 549.77C-18.7395 532.778 7.8232 534.29 34.7319 533.868C47.9503 533.623 61.3677 532.596 74.7073 528.806C114.272 517.49 120.651 499.177 170.686 491.108C183.19 489.06 200.72 493.2 220.474 497.821C267.163 508.826 318.591 512.942 352.507 508.628C354.931 508.329 357.203 508.049 359.306 507.663C394.815 501.513 418.326 484.489 450.303 479.532C457.54 478.386 465.201 478.071 473.437 478.567C501.584 480.387 529.367 484.018 557.856 487.183" stroke="url(#paint10_linear_267_221)" stroke-miterlimit="10"/>
<path d="M-41.6585 537.359C-20.6058 520.381 5.94 521.769 32.6976 521.365C45.9162 521.12 59.3336 520.093 72.5219 516.32C111.818 505.286 119.293 487.084 168.541 479.992C181.231 478.173 198.627 482.457 218.247 487.223C265.14 498.585 316.093 501.499 350.377 496.508C352.801 496.208 355.073 495.928 357.177 495.542C392.483 489.037 416.332 472.217 448.461 467.24C455.849 466.075 463.493 465.636 471.578 466.151C499.859 467.829 527.643 471.461 556.131 474.627" stroke="url(#paint11_linear_267_221)" stroke-miterlimit="10"/>
<path d="M-43.3728 524.937C-22.3026 508.078 4.05711 509.237 30.6635 508.852C43.7308 508.625 57.1489 507.599 70.3547 503.949C109.518 493.055 118.105 475.088 166.413 468.994C179.29 467.403 196.569 471.955 216.055 476.865C263.152 488.583 313.612 490.171 348.282 484.627C350.689 484.203 352.961 483.922 355.065 483.536C390.016 476.695 414.354 460.063 446.484 455.084C453.872 453.919 461.516 453.479 469.753 453.976C498.168 455.512 525.969 459.269 554.459 462.436" stroke="url(#paint12_linear_267_221)" stroke-miterlimit="10"/>
<path d="M-45.0879 512.527C-24.1689 495.68 2.0397 496.859 28.6291 496.349C41.6966 496.122 54.946 494.99 68.1692 491.463C107.064 480.851 116.764 463.119 164.268 457.879C177.314 456.393 194.645 461.319 213.829 466.268C261.147 478.468 310.962 478.748 346.152 472.506C348.559 472.083 350.814 471.678 352.918 471.291C387.649 463.97 412.359 447.791 444.472 442.687C451.86 441.522 459.505 441.082 467.724 441.454C496.123 442.867 523.942 446.749 552.734 449.879" stroke="url(#paint13_linear_267_221)" stroke-miterlimit="10"/>
<path d="M-46.8201 499.988C-26.035 483.28 0.139268 484.21 26.5775 483.719C39.4936 483.511 52.8944 482.359 65.9663 478.85C104.593 468.521 115.388 450.902 162.105 446.642C175.337 445.385 192.552 450.579 211.601 455.672C259.124 468.228 308.464 467.305 344.022 460.385C346.428 459.961 348.684 459.556 350.77 459.046C385.298 451.369 410.346 435.396 442.459 430.291C449.848 429.125 457.643 428.666 465.863 429.039C494.396 430.309 522.215 434.192 551.025 437.447" stroke="url(#paint14_linear_267_221)" stroke-miterlimit="10"/>
<path d="M-48.5333 487.578C-27.8821 471.007 -1.74206 471.69 24.545 471.217C37.4612 471.009 50.6933 469.752 63.7827 466.366C102.124 456.195 114.049 438.935 159.962 435.531C173.38 434.503 190.461 439.842 209.376 445.079C257.254 457.975 305.816 455.884 341.894 448.266C344.283 447.718 346.538 447.313 348.642 446.927C382.967 438.894 408.371 423.251 440.618 418.001C448.158 416.816 455.802 416.376 464.005 416.625C492.521 417.771 520.509 421.76 549.302 424.893" stroke="url(#paint15_linear_267_221)" stroke-miterlimit="10"/>
<path d="M-50.2481 475.163C-29.7483 458.607 -3.75933 459.308 22.5107 458.712C35.4098 458.379 48.5077 457.264 61.5972 453.877C99.671 443.989 112.709 426.966 157.816 424.418C171.421 423.62 188.385 429.227 207.301 434.466C255.4 447.843 303.451 444.299 340.066 436.107C342.455 435.559 344.711 435.154 346.797 434.643C380.919 426.255 406.509 410.837 438.908 405.566C446.449 404.381 454.227 403.798 462.295 404.189C490.946 405.193 518.935 409.184 547.897 412.422" stroke="url(#paint16_linear_267_221)" stroke-miterlimit="10"/>
<path d="M-51.96 462.742C-31.4427 446.307 -5.63997 446.779 20.4787 446.201C33.2264 445.887 46.325 444.772 59.4146 441.384C97.2203 431.78 111.388 415.119 155.656 413.18C169.447 412.611 186.294 418.486 205.075 423.869C253.378 437.602 300.954 432.854 337.937 423.983C340.326 423.435 342.564 422.905 344.802 422.376C378.569 413.65 404.649 398.422 437.048 393.15C444.589 391.965 452.367 391.382 460.57 391.63C489.203 392.51 517.21 396.625 546.324 399.846" stroke="url(#paint17_linear_267_221)" stroke-miterlimit="10"/>
<path d="M-53.6738 450.3C-33.308 433.884 -7.52256 434.231 18.4446 433.672C31.1923 433.358 44.2734 432.119 57.2288 428.874C94.7489 419.432 110.046 403.137 153.509 402.055C167.486 401.716 184.216 407.858 202.846 413.26C251.353 427.347 298.318 421.537 335.803 411.846C338.193 411.298 340.431 410.768 342.651 410.115C376.215 401.035 402.649 386.142 435.032 380.746C442.555 379.437 450.35 378.978 458.553 379.226C487.321 379.963 515.327 384.078 544.458 387.423" stroke="url(#paint18_linear_267_221)" stroke-miterlimit="10"/>
<path d="M-55.4032 437.734C-35.1717 421.461 -9.40348 421.684 16.3948 421.02C28.991 420.725 42.0719 419.486 55.0273 416.241C92.279 407.085 108.857 391.137 151.195 390.827C165.51 390.698 181.971 397.126 200.468 402.671C249.195 417.235 295.666 410.097 333.519 399.729C335.891 399.057 338.129 398.527 340.367 397.998C373.727 388.565 400.499 373.883 433.033 368.469C440.708 367.141 448.503 366.682 456.689 366.806C485.608 367.524 513.614 371.64 542.879 374.841" stroke="url(#paint19_linear_267_221)" stroke-miterlimit="10"/>
<path d="M-57.1172 425.29C-37.0199 409.16 -11.4378 409.154 14.3605 408.489C26.9566 408.195 39.8686 406.85 52.8413 403.729C89.8245 394.86 107.533 379.279 149.048 379.702C163.549 379.803 179.893 386.497 198.238 392.06C247.168 406.978 293.163 398.635 331.384 387.591C333.757 386.919 335.995 386.389 338.215 385.736C371.389 376.074 398.481 361.48 431.015 356.066C438.689 354.738 446.468 354.154 454.67 354.403C483.572 354.997 511.596 359.236 541.013 362.419" stroke="url(#paint20_linear_267_221)" stroke-miterlimit="10"/>
<path d="M-58.8296 412.843C-38.8838 396.734 -13.319 396.604 12.3276 395.958C24.7722 395.682 37.8355 394.319 50.6566 391.217C87.354 382.51 106.209 367.42 146.902 368.576C161.606 369.031 177.817 375.868 196.01 381.449C245.161 396.843 290.511 387.192 329.251 375.453C331.623 374.781 333.844 374.127 336.064 373.473C368.883 363.477 396.482 349.201 428.998 343.663C436.672 342.335 444.602 341.733 452.636 341.876C481.672 342.327 509.695 346.566 539.13 349.873" stroke="url(#paint21_linear_267_221)" stroke-miterlimit="10"/>
<path d="M-60.5423 400.388C-40.5793 384.406 -15.1838 384.17 10.2939 383.419C22.7211 383.019 35.6334 381.675 48.4891 378.822C84.918 370.401 104.902 355.679 144.773 357.569C159.663 358.253 175.739 365.232 193.815 371.079C243.169 386.825 288.06 376.095 327.151 363.557C329.506 362.76 331.743 362.231 333.947 361.453C366.562 351.105 394.347 337.06 427.166 331.486C434.992 330.139 442.77 329.556 450.938 329.556C479.956 329.883 508.148 334.227 537.734 337.514" stroke="url(#paint22_linear_267_221)" stroke-miterlimit="10"/>
<path d="M-62.2723 387.819C-42.4609 371.857 -17.2342 371.516 8.24336 370.765C20.6705 370.364 33.4311 369.039 46.2868 366.187C82.447 358.053 103.579 343.822 142.609 346.32C157.685 347.234 173.644 354.479 191.569 360.345C241.144 376.566 285.541 364.51 324.999 351.296C327.203 350.519 329.575 349.846 331.778 349.069C364.19 338.368 392.329 324.66 425.13 318.962C432.956 317.616 440.886 317.014 448.903 317.033C478.055 317.217 506.247 321.56 535.832 324.847" stroke="url(#paint23_linear_267_221)" stroke-miterlimit="10"/>
<path d="M-63.9844 375.365C-44.3073 359.549 -19.0981 359.084 6.21054 358.227C18.4861 357.846 31.2464 356.521 44.102 353.669C79.9763 345.699 102.272 332.084 140.462 335.191C155.742 336.458 171.567 343.844 189.357 349.852C239.152 366.548 283.073 353.29 322.882 339.278C325.085 338.501 327.457 337.828 329.66 337.051C361.868 325.999 390.345 312.504 423.146 306.808C430.972 305.461 438.885 304.736 447.052 304.736C476.339 304.776 504.396 309.262 534.133 312.53" stroke="url(#paint24_linear_267_221)" stroke-miterlimit="10"/>
<path d="M-65.6971 362.916C-46.1544 347.245 -20.9799 346.532 4.17707 345.695C16.4526 345.313 29.1953 343.864 41.9166 341.156C77.6739 333.454 100.948 320.225 138.315 324.064C153.781 325.561 169.489 333.213 187.128 339.238C237.126 356.285 280.419 341.844 320.915 327.245C323.119 326.468 325.473 325.671 327.677 324.894C359.681 313.49 388.495 300.208 421.296 294.513C429.122 293.167 437.034 292.441 445.202 292.441C474.471 292.358 502.68 296.824 532.585 300.196" stroke="url(#paint25_linear_267_221)" stroke-miterlimit="10"/>
<path d="M-67.41 350.462C-48.0189 334.814 -22.8619 333.977 2.14338 333.158C14.2673 332.796 27.0098 331.347 39.731 328.639C75.2195 321.224 99.4888 308.507 136.168 312.935C151.685 314.803 167.411 322.578 184.915 328.745C235.133 346.265 277.95 330.625 318.797 315.228C320.983 314.327 323.337 313.531 325.54 312.754C357.358 301.123 386.51 288.055 419.445 282.218C427.422 280.853 435.334 280.128 443.333 280.023C472.736 279.796 500.962 284.386 530.867 287.757" stroke="url(#paint26_linear_267_221)" stroke-miterlimit="10"/>
<path d="M-69.1201 338.012C-49.7119 322.491 -24.8756 321.567 0.112081 320.625C12.2359 320.262 24.8101 318.709 37.5485 316.125C72.7511 308.873 98.1844 296.772 134.023 301.807C149.744 304.029 165.335 311.945 182.688 318.129C233.109 335.999 275.466 319.283 316.663 303.089C318.849 302.188 321.204 301.392 323.39 300.491C354.853 288.528 384.493 275.654 417.428 269.818C425.405 268.454 433.318 267.729 441.468 267.605C470.853 267.255 499.096 271.967 529.135 275.196" stroke="url(#paint27_linear_267_221)" stroke-miterlimit="10"/>
<path d="M-70.8495 325.44C-51.5928 309.941 -26.774 308.893 -1.93801 307.97C10.1684 307.484 22.6082 306.073 35.3464 303.49C70.2804 296.525 96.8781 285.039 131.86 290.558C147.784 293.132 163.089 301.208 180.441 307.391C231.083 325.736 272.947 307.696 314.512 290.828C316.697 289.928 319.034 289.008 321.238 288.231C352.497 275.917 382.341 263.399 415.409 257.422C423.369 255.934 431.432 255.19 439.431 255.085C468.951 254.592 497.193 259.304 527.401 262.637" stroke="url(#paint28_linear_267_221)" stroke-miterlimit="10"/>
<path d="M-72.5599 312.988C-53.4376 297.635 -28.6537 296.34 -3.96945 295.436C7.98529 294.968 20.559 293.415 33.163 290.976C67.8109 284.174 95.4211 273.323 129.563 279.449C145.673 282.252 160.861 290.592 178.079 296.916C228.789 315.751 270.328 296.495 312.243 278.833C314.428 277.932 316.766 277.013 318.951 276.112C350.007 263.448 380.188 251.144 413.256 245.168C421.216 243.681 429.279 242.937 437.278 242.832C466.914 242.073 495.191 247.031 525.398 250.363" stroke="url(#paint29_linear_267_221)" stroke-miterlimit="10"/>
<path d="M-74.2714 300.537C-55.2836 285.331 -30.6686 283.931 -6.0019 282.903C5.95272 282.436 18.3746 280.902 30.9785 278.463C65.3577 271.949 93.963 261.608 127.416 268.321C143.578 271.495 158.783 279.957 175.85 286.298C226.78 305.607 267.842 285.153 310.107 266.695C312.276 265.671 314.613 264.752 316.799 263.851C347.668 250.961 378.169 238.747 411.388 232.754C419.499 231.248 427.411 230.523 435.544 230.275C465.162 229.392 493.59 234.331 523.814 237.786" stroke="url(#paint30_linear_267_221)" stroke-miterlimit="10"/>
<path d="M-75.9834 288.086C-56.9958 272.884 -32.5498 271.379 -8.03486 270.37C3.76816 269.921 16.1898 268.388 28.8108 266.073C62.9213 259.846 92.522 250.015 125.269 257.192C141.652 260.842 156.705 269.321 173.637 275.803C224.771 295.46 265.374 273.933 307.989 254.68C310.157 253.656 312.494 252.737 314.663 251.713C345.328 238.473 376.184 226.596 409.385 220.481C417.496 218.975 425.56 218.232 433.541 218.003C463.31 217.102 491.587 222.057 521.945 225.369" stroke="url(#paint31_linear_267_221)" stroke-miterlimit="10"/>
<path d="M-77.6937 275.636C-58.8404 260.581 -34.4296 258.829 -10.0664 257.838C1.73643 257.39 14.1412 255.733 26.6279 253.562C60.4524 247.497 91.0823 238.424 123.124 246.064C139.709 250.067 154.629 258.686 171.409 265.185C222.763 285.313 262.889 262.591 305.854 242.544C308.023 241.52 310.342 240.477 312.528 239.577C342.99 225.988 374.183 214.325 407.384 208.211C415.495 206.706 423.541 205.839 431.673 205.591C461.425 204.566 489.852 209.502 520.379 212.918" stroke="url(#paint32_linear_267_221)" stroke-miterlimit="10"/>
<path d="M-79.4192 263.067C-60.7177 248.035 -36.3072 246.283 -12.1132 245.188C-0.310445 244.74 11.9425 243.102 24.429 240.932C57.9674 235.03 89.6099 226.591 120.963 234.818C137.6 239.19 152.536 247.931 169.182 254.57C220.756 275.169 260.557 251.234 303.721 230.412C305.889 229.389 308.058 228.366 310.378 227.323C340.652 213.509 372.183 202.06 405.366 195.824C413.628 194.301 421.674 193.434 429.638 193.082C459.523 191.914 487.968 196.972 518.494 200.388" stroke="url(#paint33_linear_267_221)" stroke-miterlimit="10"/>
<path d="M-81.1292 250.62C-62.5621 235.735 -38.3379 233.755 -14.1442 232.66C-2.51042 232.107 9.74225 230.469 22.2459 228.423C55.5155 222.809 88.1706 215.002 118.818 223.692C135.507 228.435 150.46 237.297 166.954 243.953C218.597 265.042 258.072 239.894 301.586 218.279C303.754 217.256 305.906 216.109 308.225 215.067C338.297 200.904 370.012 189.687 403.498 183.415C411.76 181.892 419.806 181.026 427.77 180.673C457.789 179.364 486.099 184.563 516.776 187.959" stroke="url(#paint34_linear_267_221)" stroke-miterlimit="10"/>
<path d="M-82.8387 238.174C-64.406 223.435 -40.1994 221.332 -16.1748 220.132C-4.5412 219.579 7.55968 217.961 20.0632 215.916C53.064 210.588 86.5625 203.309 116.672 212.566C133.582 217.784 148.384 226.662 164.726 233.335C216.589 254.894 255.588 228.553 299.603 206.127C301.754 204.981 303.923 203.958 306.225 202.792C336.11 188.404 368.145 177.277 401.631 171.007C409.893 169.485 417.938 168.619 426.036 168.124C456.038 166.691 484.499 171.87 515.327 175.246" stroke="url(#paint35_linear_267_221)" stroke-miterlimit="10"/>
<path d="M-84.5474 225.731C-66.115 210.998 -42.0776 208.791 -18.2049 207.61C23.9012 205.693 73.9616 187.943 114.376 201.464C131.337 207.052 146.155 216.05 162.364 222.863C214.446 244.889 252.968 217.359 297.333 194.144C328.775 177.682 363.468 165.728 399.493 158.896C439.119 151.369 474.357 158.731 513.338 163.115" stroke="url(#paint36_linear_267_221)" stroke-miterlimit="10"/>
<path d="M1231.51 546.191C1269.03 518.928 1318.73 538.072 1364.46 524.131C1411.5 509.652 1408.29 491.689 1471.67 471.422C1511.72 458.559 1637.95 498.565 1680.62 495.816C1731.95 492.375 1754.24 462.968 1805.47 467.337C1836.03 469.979 1866.43 472.642 1896.99 475.284" stroke="url(#paint37_linear_267_221)" stroke-miterlimit="10"/>
<path d="M1229.8 533.779C1254.7 515.614 1285.23 518.009 1316.2 517.457C1331.61 517.192 1347.08 516.163 1362.21 511.529C1409.11 497.315 1406.75 479.243 1469.44 460.187C1481.94 456.381 1502.21 457.778 1525.49 461.069C1574.87 468.182 1637.37 483.235 1670.71 483.649C1673.46 483.687 1676.03 483.622 1678.41 483.454C1720.34 480.293 1743.26 460.233 1778.27 455.41C1786.01 454.329 1794.37 454.051 1803.57 454.803C1834.12 457.322 1864.7 460.089 1895.27 462.732" stroke="url(#paint38_linear_267_221)" stroke-miterlimit="10"/>
<path d="M1228.08 521.366C1252.83 503.339 1283.17 505.633 1314.13 504.957C1329.37 504.712 1344.84 503.684 1359.99 499.172C1406.59 485.243 1405.22 466.917 1467.24 449.197C1479.78 445.636 1500.07 447.158 1523.19 450.594C1572.79 458.06 1634.77 471.799 1668.55 471.656C1671.3 471.694 1673.86 471.629 1676.22 471.337C1717.92 467.701 1741.23 447.965 1776.24 443.141C1783.98 442.06 1792.33 441.658 1801.53 442.41C1832.23 444.785 1862.81 447.553 1893.39 450.32" stroke="url(#paint39_linear_267_221)" stroke-miterlimit="10"/>
<path d="M1226.36 508.952C1251.11 490.921 1281.27 493.113 1312.06 492.458C1327.3 492.213 1342.58 491.081 1357.75 486.692C1404.03 472.924 1403.69 454.593 1465.01 437.963C1477.73 434.504 1497.9 436.419 1520.88 440C1570.87 447.797 1632.15 460.241 1666.37 459.541C1669.1 459.455 1671.66 459.39 1674.04 459.222C1715.35 455.256 1739.05 435.844 1774.38 430.854C1782.12 429.772 1790.47 429.371 1799.67 430.123C1830.35 432.375 1860.95 435.267 1891.86 437.87" stroke="url(#paint40_linear_267_221)" stroke-miterlimit="10"/>
<path d="M1224.63 496.418C1249.23 478.526 1279.35 480.471 1309.99 479.96C1325.04 479.612 1340.51 478.583 1355.51 474.213C1401.49 460.731 1402.16 442.27 1462.79 426.852C1475.72 423.619 1495.74 425.679 1518.57 429.406C1568.78 437.556 1629.53 448.684 1664.19 447.426C1666.92 447.34 1669.48 447.275 1671.84 446.984C1712.91 442.542 1737 423.455 1772.33 418.463C1780.24 417.36 1788.59 416.958 1797.77 417.587C1828.61 419.696 1859.21 422.588 1890.13 425.316" stroke="url(#paint41_linear_267_221)" stroke-miterlimit="10"/>
<path d="M1222.91 484C1247.36 466.249 1277.47 468.07 1307.93 467.457C1322.97 467.109 1338.26 465.977 1353.28 461.73C1398.95 448.533 1400.65 430.066 1460.58 415.739C1473.7 412.608 1493.6 415.061 1516.28 418.933C1566.71 427.436 1626.93 437.247 1662.02 435.431C1664.75 435.346 1667.3 435.157 1669.66 434.865C1710.51 430.072 1734.99 411.31 1770.3 406.193C1778.21 405.09 1786.56 404.688 1795.74 405.317C1826.73 407.282 1857.35 410.299 1888.27 413.027" stroke="url(#paint42_linear_267_221)" stroke-miterlimit="10"/>
<path d="M1221.2 471.589C1245.48 453.854 1275.4 455.572 1305.85 454.959C1320.9 454.611 1336.02 453.499 1351.04 449.251C1396.39 436.216 1399.29 417.721 1458.37 404.629C1471.52 401.745 1491.46 404.446 1513.96 408.34C1564.62 417.196 1624.31 425.691 1659.84 423.317C1662.56 423.107 1665.1 422.919 1667.46 422.627C1708.09 417.481 1732.94 398.919 1768.26 393.801C1776.17 392.698 1784.69 392.275 1793.85 392.78C1824.82 394.622 1855.46 397.764 1886.72 400.451" stroke="url(#paint43_linear_267_221)" stroke-miterlimit="10"/>
<path d="M1219.48 459.169C1243.78 441.553 1273.5 443.046 1303.79 442.453C1318.67 442.126 1333.95 440.993 1348.8 436.765C1393.87 424.14 1397.78 405.516 1456.15 393.516C1469.49 390.734 1489.3 393.704 1511.67 397.868C1562.54 407.077 1621.56 414.398 1657.86 411.424C1660.58 411.214 1663.13 411.025 1665.49 410.733C1705.88 405.112 1731.12 386.876 1766.6 381.736C1774.68 380.611 1783.01 380.086 1792.19 380.715C1823.33 382.536 1853.95 385.555 1885.21 388.243" stroke="url(#paint44_linear_267_221)" stroke-miterlimit="10"/>
<path d="M1217.76 446.758C1241.9 429.157 1271.62 430.65 1301.72 429.954C1316.6 429.627 1331.7 428.391 1346.56 424.285C1391.31 411.822 1396.44 393.294 1453.94 382.406C1467.48 379.851 1487.15 383.09 1509.36 387.276C1560.45 396.839 1618.94 402.841 1655.68 399.308C1658.4 399.099 1660.93 398.786 1663.29 398.494C1703.29 392.542 1729.09 374.609 1764.55 369.343C1772.62 368.094 1780.97 367.692 1790.13 368.198C1821.25 369.896 1852.06 373.019 1883.32 375.708" stroke="url(#paint45_linear_267_221)" stroke-miterlimit="10"/>
<path d="M1216.03 434.226C1240.01 416.764 1269.53 418.031 1299.63 417.335C1314.34 417.028 1329.44 415.792 1344.31 411.685C1388.76 399.508 1395.08 380.952 1451.54 371.198C1465.28 368.869 1484.82 372.378 1506.86 376.586C1558.36 386.606 1616.14 391.186 1653.31 387.094C1656.01 386.76 1658.56 386.571 1660.9 386.155C1700.69 379.85 1726.86 362.118 1762.32 356.85C1770.39 355.602 1778.9 355.179 1788.05 355.56C1819.33 357.114 1850.13 360.238 1881.41 363.052" stroke="url(#paint46_linear_267_221)" stroke-miterlimit="10"/>
<path d="M1214.32 421.809C1238.15 404.488 1267.65 405.631 1297.56 404.831C1312.26 404.401 1327.19 403.185 1342.07 399.201C1386.22 387.31 1393.59 368.872 1449.33 360.088C1463.26 357.861 1482.68 361.764 1504.56 366.118C1556.29 376.492 1613.39 379.896 1651.15 375.1C1653.85 374.766 1656.38 374.453 1658.72 374.037C1698.29 367.38 1724.68 349.994 1760.3 344.58C1768.36 343.331 1776.88 342.908 1786.02 343.29C1817.28 344.72 1848.11 347.969 1879.72 350.742" stroke="url(#paint47_linear_267_221)" stroke-miterlimit="10"/>
<path d="M1212.6 409.398C1236.26 392.092 1265.74 393.112 1295.49 392.333C1310.19 391.902 1325.12 390.686 1339.83 386.722C1383.68 375.117 1392.27 356.775 1447.11 348.981C1461.25 346.98 1480.52 351.03 1502.25 355.53C1554.2 366.258 1610.79 368.466 1648.97 362.986C1651.67 362.652 1654.2 362.339 1656.54 361.923C1695.88 354.912 1722.65 337.726 1758.44 332.29C1766.67 331.02 1775.17 330.473 1784.15 330.876C1815.56 332.162 1846.38 335.412 1878 338.186" stroke="url(#paint48_linear_267_221)" stroke-miterlimit="10"/>
<path d="M1210.88 396.977C1234.56 379.79 1263.84 380.583 1293.42 379.825C1307.95 379.416 1322.88 378.199 1337.61 374.357C1381.31 362.895 1391.13 344.773 1444.92 337.992C1459.25 336.218 1478.39 340.537 1499.97 345.184C1552.14 356.266 1608.2 357.152 1646.82 351.112C1649.5 350.654 1652.03 350.341 1654.38 349.925C1693.33 342.582 1720.64 325.577 1756.42 320.139C1764.65 318.869 1773.16 318.321 1782.3 318.704C1813.86 319.845 1844.71 323.22 1876.32 325.995" stroke="url(#paint49_linear_267_221)" stroke-miterlimit="10"/>
<path d="M1209.17 384.565C1232.68 367.394 1261.79 368.208 1291.35 367.326C1305.88 366.916 1320.62 365.596 1335.38 361.877C1378.77 350.7 1389.82 332.799 1442.7 326.885C1457.23 325.214 1476.41 329.907 1497.66 334.597C1550.07 346.159 1605.43 345.743 1644.64 338.997C1647.32 338.539 1649.83 338.102 1652.18 337.685C1690.89 329.864 1718.61 313.309 1754.38 307.745C1762.61 306.474 1771.11 305.927 1780.24 306.185C1811.78 307.203 1842.65 310.704 1874.6 313.438" stroke="url(#paint50_linear_267_221)" stroke-miterlimit="10"/>
<path d="M1207.44 372.027C1230.8 354.996 1259.87 355.562 1289.27 354.701C1303.63 354.312 1318.54 352.971 1333.12 349.272C1376.21 338.382 1388.48 320.579 1440.47 315.657C1455.2 314.213 1474.25 319.176 1495.35 324.012C1547.98 335.928 1602.83 334.313 1642.46 326.883C1645.14 326.424 1647.65 325.987 1649.98 325.447C1688.48 317.272 1716.56 300.919 1752.33 295.354C1760.56 294.083 1769.23 293.514 1778.36 293.773C1810.06 294.646 1840.92 298.148 1872.89 301.007" stroke="url(#paint51_linear_267_221)" stroke-miterlimit="10"/>
<path d="M1205.72 359.616C1228.93 342.725 1257.97 343.043 1287.2 342.202C1301.56 341.813 1316.28 340.369 1330.88 336.793C1373.66 326.066 1387.18 308.607 1438.26 304.554C1453.19 303.337 1472.09 308.446 1493.04 313.43C1546.05 325.68 1600.06 322.907 1640.28 314.77C1642.94 314.187 1645.46 313.75 1647.8 313.333C1686.07 304.805 1714.55 288.777 1750.47 283.066C1758.87 281.773 1767.37 281.225 1776.49 281.36C1808.17 282.109 1839.21 285.715 1871.17 288.451" stroke="url(#paint52_linear_267_221)" stroke-miterlimit="10"/>
<path d="M1204.01 347.202C1227.05 330.327 1255.92 330.666 1285.13 329.701C1299.47 329.188 1314.05 327.887 1328.65 324.311C1371.12 313.871 1385.87 296.633 1436.05 293.45C1451.18 292.459 1469.95 297.84 1490.89 302.825C1544.15 315.555 1597.61 311.333 1638.44 302.613C1641.1 302.03 1643.61 301.593 1645.94 301.052C1683.99 292.17 1712.67 276.365 1748.77 270.631C1757.17 269.338 1765.82 268.645 1774.78 268.924C1806.61 269.529 1837.66 273.136 1869.8 275.976" stroke="url(#paint53_linear_267_221)" stroke-miterlimit="10"/>
<path d="M1202.3 334.781C1225.35 318.027 1254.02 318.139 1283.06 317.194C1297.24 316.702 1311.81 315.401 1326.41 311.824C1368.58 301.672 1384.58 284.782 1433.82 282.22C1449.15 281.457 1467.79 287.108 1488.58 292.239C1542.06 305.323 1595.01 299.9 1636.25 290.495C1638.92 289.912 1641.41 289.35 1643.91 288.789C1681.57 279.574 1710.8 263.952 1746.89 258.217C1755.29 256.924 1763.94 256.231 1773.05 256.365C1804.87 256.846 1835.93 260.578 1868.24 263.397" stroke="url(#paint54_linear_267_221)" stroke-miterlimit="10"/>
<path d="M1200.58 322.34C1223.47 305.607 1252.12 305.595 1280.99 304.671C1295.17 304.179 1309.73 302.754 1324.18 299.321C1366.02 289.336 1383.28 272.796 1431.6 271.105C1447.14 270.569 1465.64 276.49 1486.27 281.641C1539.97 295.077 1592.26 288.599 1634.07 278.365C1636.73 277.783 1639.23 277.221 1641.71 276.535C1679.15 266.969 1708.76 251.677 1744.84 245.818C1753.22 244.401 1761.89 243.832 1771 243.966C1802.97 244.302 1834.03 248.034 1866.36 250.978" stroke="url(#paint55_linear_267_221)" stroke-miterlimit="10"/>
<path d="M1198.85 309.773C1221.59 293.186 1250.23 293.05 1278.91 292.023C1292.92 291.551 1307.47 290.127 1321.92 286.695C1363.47 277 1382.14 260.79 1429.2 259.887C1445.11 259.558 1463.31 265.768 1483.79 271.065C1537.72 284.976 1589.48 277.174 1631.72 266.257C1634.36 265.55 1636.86 264.988 1639.35 264.427C1676.58 254.509 1706.56 239.425 1742.8 233.546C1751.35 232.107 1760.03 231.538 1769.12 231.549C1801.25 231.863 1832.32 235.595 1864.8 238.394" stroke="url(#paint56_linear_267_221)" stroke-miterlimit="10"/>
<path d="M1197.14 297.329C1219.72 280.888 1248.16 280.524 1276.84 279.497C1290.85 279.025 1305.22 277.498 1319.69 274.19C1360.93 264.786 1380.85 248.927 1426.99 248.771C1443.1 248.669 1461.17 255.148 1481.47 260.465C1535.63 274.727 1586.88 265.726 1629.53 254.126C1632.18 253.419 1634.67 252.857 1637.15 252.171C1674.17 242.027 1704.51 227.026 1740.75 221.147C1749.3 219.708 1757.96 219.015 1767.07 219.15C1799.18 219.34 1830.27 223.196 1862.91 225.973" stroke="url(#paint57_linear_267_221)" stroke-miterlimit="10"/>
<path d="M1195.42 284.883C1217.84 268.464 1246.26 267.976 1274.77 266.97C1288.61 266.519 1303.15 264.971 1317.45 261.684C1358.37 252.447 1379.56 237.064 1424.77 237.654C1441.11 237.904 1459.02 244.527 1479.16 249.865C1533.55 264.601 1584.1 254.297 1627.34 241.994C1629.99 241.287 1632.47 240.601 1634.95 239.915C1671.58 229.441 1702.47 214.751 1738.7 208.748C1747.25 207.31 1756.07 206.596 1765 206.628C1797.27 206.673 1828.35 210.528 1861.01 213.43" stroke="url(#paint58_linear_267_221)" stroke-miterlimit="10"/>
<path d="M1193.71 272.428C1216.15 256.136 1244.38 255.544 1272.71 254.435C1286.52 253.861 1300.9 252.333 1315.23 249.295C1355.85 240.349 1378.29 225.319 1422.57 226.655C1439.11 227.132 1456.87 233.9 1476.88 239.506C1531.49 254.591 1581.55 243.213 1625.19 230.104C1627.82 229.273 1630.32 228.712 1632.78 227.902C1669.19 217.077 1700.29 202.617 1736.85 196.573C1745.57 195.114 1754.22 194.421 1763.3 194.307C1795.55 194.229 1826.82 198.187 1859.65 201.067" stroke="url(#paint59_linear_267_221)" stroke-miterlimit="10"/>
<path d="M1191.98 259.857C1214.25 243.588 1242.29 242.893 1270.62 241.784C1284.44 241.21 1298.64 239.703 1312.97 236.666C1353.29 228.011 1377 213.457 1420.34 215.414C1437.08 216.119 1454.71 223.155 1474.54 228.781C1529.4 244.34 1578.93 231.64 1622.99 217.849C1625.45 217.039 1628.1 216.333 1630.56 215.523C1666.75 204.348 1698.23 190.22 1734.78 184.053C1743.5 182.594 1752.32 181.881 1761.23 181.788C1793.63 181.564 1824.9 185.521 1857.73 188.401" stroke="url(#paint60_linear_267_221)" stroke-miterlimit="10"/>
<path d="M1190.27 247.404C1212.38 231.283 1240.41 230.464 1268.55 229.253C1282.2 228.699 1296.41 227.193 1310.74 224.156C1350.73 215.668 1375.72 201.716 1418.12 204.294C1435.09 205.35 1452.56 212.53 1472.25 218.3C1527.34 234.332 1576.36 220.434 1620.82 205.839C1623.28 205.029 1625.93 204.322 1628.39 203.513C1664.35 191.989 1696.21 178.07 1732.76 171.904C1741.48 170.445 1750.28 169.608 1759.36 169.494C1791.91 169.125 1823.03 173.227 1856.03 176.085" stroke="url(#paint61_linear_267_221)" stroke-miterlimit="10"/>
<path d="M1188.56 234.954C1210.52 218.98 1238.51 217.914 1266.49 216.723C1280.14 216.169 1294.32 214.539 1308.5 211.648C1348.36 203.431 1374.44 189.852 1415.91 193.175C1433.08 194.459 1450.42 201.906 1469.93 207.696C1525.24 224.076 1573.58 209.003 1618.82 193.809C1621.28 192.999 1623.91 192.169 1626.37 191.359C1662.12 179.486 1694.35 165.775 1730.89 159.61C1739.61 158.152 1748.42 157.315 1757.5 157.201C1790.03 156.708 1821.31 160.788 1854.5 163.749" stroke="url(#paint62_linear_267_221)" stroke-miterlimit="10"/>
<path d="M1186.85 222.501C1208.64 206.552 1236.61 205.361 1264.42 204.191C1277.9 203.658 1292.09 202.029 1306.27 199.138C1345.83 191.213 1373 178.131 1413.7 182.055C1430.91 183.71 1448.27 191.28 1467.63 197.213C1523.18 214.065 1571.01 197.796 1616.65 181.798C1619.09 180.865 1621.72 180.035 1624.18 179.225C1659.73 167.127 1692.33 153.626 1729.02 147.317C1737.91 145.839 1746.72 145.001 1755.61 144.784C1788.29 144.146 1819.6 148.35 1852.78 151.31" stroke="url(#paint63_linear_267_221)" stroke-miterlimit="10"/>
<path d="M1185.13 210.05C1206.94 194.228 1234.56 192.955 1262.35 191.662C1275.83 191.129 1289.83 189.397 1304.03 186.63C1343.27 178.872 1371.72 166.392 1411.48 170.936C1428.92 172.942 1446.13 180.655 1465.32 186.608C1521.09 203.808 1568.42 186.467 1614.46 169.666C1616.91 168.733 1619.53 167.903 1621.98 166.969C1657.13 154.543 1690.27 141.23 1726.97 134.922C1735.86 133.444 1744.66 132.607 1753.72 132.369C1786.39 131.607 1817.71 135.933 1851.05 138.748" stroke="url(#paint64_linear_267_221)" stroke-miterlimit="10"/>
<path d="M1183.41 197.48C1205.05 181.682 1232.65 180.285 1260.27 179.012C1273.73 178.356 1287.58 176.769 1301.78 174.003C1340.71 166.536 1370.45 154.656 1409.25 159.696C1426.91 162.053 1443.8 169.93 1462.99 175.882C1518.99 193.554 1565.8 174.894 1612.26 157.413C1614.7 156.48 1617.31 155.526 1619.78 154.717C1654.71 141.942 1688.07 128.983 1724.92 122.531C1733.79 120.929 1742.76 120.071 1751.65 119.854C1784.47 118.948 1815.79 123.273 1849.31 126.19" stroke="url(#paint65_linear_267_221)" stroke-miterlimit="10"/>
<path d="M1181.7 185.027C1203.18 169.377 1230.75 167.733 1258.2 166.482C1271.5 165.846 1285.5 164.115 1299.54 161.494C1338.16 154.195 1369.01 142.937 1406.87 148.597C1424.73 151.18 1441.48 159.324 1460.52 165.419C1516.6 183.582 1563.06 163.708 1609.92 145.425C1612.36 144.492 1614.98 143.539 1617.42 142.606C1652.13 129.483 1685.87 116.733 1722.71 110.284C1731.58 108.682 1740.56 107.824 1749.45 107.607C1782.4 106.432 1813.75 111.004 1847.28 113.921" stroke="url(#paint66_linear_267_221)" stroke-miterlimit="10"/>
<path d="M1179.98 172.576C1201.32 157.076 1228.7 155.329 1256.13 153.954C1269.43 153.318 1283.26 151.608 1297.31 148.988C1335.62 141.98 1367.57 131.219 1404.65 137.478C1422.56 140.432 1439.34 148.698 1458.21 154.813C1514.52 173.446 1560.47 152.379 1607.73 133.294C1610.16 132.237 1612.77 131.284 1615.21 130.351C1649.72 117.005 1683.81 104.34 1720.83 97.8712C1729.86 96.2491 1738.67 95.4123 1747.71 95.0505C1780.65 93.7516 1812.17 98.3017 1845.71 101.341" stroke="url(#paint67_linear_267_221)" stroke-miterlimit="10"/>
<path d="M1178.27 160.125C1199.61 144.628 1226.8 142.778 1254.07 141.424C1267.19 140.81 1281.02 139.1 1295.09 136.605C1333.1 129.888 1366.15 119.624 1402.44 126.357C1420.59 129.786 1437.19 138.07 1455.91 144.328C1512.44 163.307 1557.9 141.172 1605.56 121.286C1607.99 120.229 1610.6 119.276 1613.03 118.22C1647.31 104.525 1681.79 92.1943 1718.79 85.6028C1727.83 83.9809 1736.8 83.1236 1745.68 82.7827C1778.78 81.4632 1810.13 86.0329 1843.82 88.9267" stroke="url(#paint68_linear_267_221)" stroke-miterlimit="10"/>
<path d="M1176.56 147.676C1197.75 132.327 1224.91 130.23 1252 128.898C1265.13 128.283 1278.94 126.45 1292.85 124.1C1330.54 117.55 1364.72 108.031 1400.22 115.238C1418.59 119.017 1435.04 127.444 1453.6 133.721C1510.37 153.17 1555.31 129.843 1603.38 109.156C1605.8 108.1 1608.4 107.023 1610.84 106.091C1644.91 92.049 1679.76 79.927 1716.75 73.3372C1725.79 71.7157 1734.75 70.7347 1743.79 70.373C1776.87 68.9299 1808.39 73.4776 1842.27 76.4736" stroke="url(#paint69_linear_267_221)" stroke-miterlimit="10"/>
<path d="M1174.84 135.106C1195.85 119.784 1223.01 117.687 1249.92 116.252C1263.04 115.638 1276.69 113.825 1290.6 111.476C1327.97 105.094 1363.27 96.1962 1397.99 104C1416.42 108.149 1432.88 116.697 1451.28 123.117C1508.29 143.034 1552.9 118.497 1601.19 97.0313C1603.62 95.9756 1606.04 94.9199 1608.64 93.8433C1642.5 79.5792 1677.72 67.6669 1714.7 60.9551C1723.9 59.3133 1732.86 58.3326 1741.72 57.868C1774.95 56.2806 1806.49 60.9506 1840.37 63.9456" stroke="url(#paint70_linear_267_221)" stroke-miterlimit="10"/>
<path d="M1173.13 122.66C1193.99 107.486 1220.95 105.163 1247.85 103.728C1260.79 103.011 1274.44 101.199 1288.37 98.9745C1325.43 92.8836 1361.85 84.6056 1395.78 92.8832C1414.25 97.4021 1430.74 106.072 1448.97 112.511C1506.04 132.917 1550.31 107.169 1599 84.9043C1601.43 83.8488 1603.84 82.6695 1606.43 81.5932C1640.07 66.9823 1675.5 55.3002 1712.81 48.5485C1722.02 46.9072 1730.97 45.9266 1739.83 45.4621C1773.22 43.7304 1804.6 48.5436 1838.65 51.5169" stroke="url(#paint71_linear_267_221)" stroke-miterlimit="10"/>
<path d="M1171.42 110.213C1192.13 95.1884 1219.07 92.7424 1245.79 91.2047C1258.73 90.4879 1272.2 88.6977 1286.13 86.4735C1322.89 80.6735 1360.24 72.9125 1393.56 81.7661C1412.28 86.7579 1428.59 95.446 1446.66 101.904C1503.97 122.779 1547.72 95.842 1596.99 72.7572C1599.39 71.5782 1601.82 70.523 1604.4 69.3233C1637.83 54.4898 1673.61 42.893 1710.93 36.1432C1720.13 34.5023 1729.09 33.5219 1738.1 32.9129C1771.47 31.0578 1803.02 35.8488 1837.23 38.8003" stroke="url(#paint72_linear_267_221)" stroke-miterlimit="10"/>
<path d="M1169.71 97.7692C1190.42 82.7505 1217.17 80.2027 1243.73 78.6863C1290.56 76.1766 1346.47 57.6925 1391.18 70.6745C1409.95 76.0354 1426.28 84.8435 1444.19 91.4428C1501.74 112.783 1544.98 84.6618 1594.65 60.7815C1629.85 43.8482 1668.59 31.3862 1708.74 24.0376C1752.9 15.9417 1791.95 22.8255 1835.21 26.6724" stroke="url(#paint73_linear_267_221)" stroke-miterlimit="10"/>
<path d="M574.38 612.922C611.9 585.66 661.594 604.804 707.332 590.862C754.366 576.383 751.159 558.421 814.537 538.153C854.593 525.29 980.814 565.297 1023.49 562.547C1074.82 559.107 1097.11 529.699 1148.34 534.068C1178.9 536.71 1209.3 539.373 1239.86 542.015" stroke="url(#paint74_linear_267_221)" stroke-miterlimit="10"/>
<path d="M572.665 600.511C597.566 582.345 628.098 584.741 659.073 584.189C674.477 583.923 689.944 582.895 705.078 578.26C751.979 564.046 749.615 545.975 812.307 526.919C824.812 523.112 845.081 524.51 868.36 527.8C917.739 534.914 980.241 549.967 1013.58 550.38C1016.33 550.418 1018.9 550.353 1021.28 550.186C1063.21 547.024 1086.13 526.965 1121.14 522.142C1128.88 521.061 1137.24 520.783 1146.44 521.534C1176.99 524.054 1207.57 526.82 1238.14 529.463" stroke="url(#paint75_linear_267_221)" stroke-miterlimit="10"/>
<path d="M570.946 588.097C595.697 570.071 626.042 572.364 657.001 571.689C672.236 571.444 687.704 570.415 702.855 565.903C749.455 551.974 748.085 533.649 810.108 515.928C822.648 512.368 842.934 513.89 866.063 517.326C915.663 524.792 977.638 538.53 1011.42 538.387C1014.17 538.425 1016.73 538.36 1019.09 538.069C1060.79 534.432 1084.1 514.696 1119.11 509.872C1126.85 508.791 1135.2 508.389 1144.4 509.141C1175.1 511.517 1205.68 514.284 1236.26 517.052" stroke="url(#paint76_linear_267_221)" stroke-miterlimit="10"/>
<path d="M569.231 575.684C593.982 557.653 624.142 559.844 654.933 559.189C670.168 558.944 685.45 557.813 700.619 553.423C746.899 539.656 746.559 521.325 807.878 504.694C820.604 501.236 840.774 503.15 863.752 506.731C913.742 514.529 975.02 526.972 1009.24 526.272C1011.97 526.186 1014.53 526.122 1016.91 525.954C1058.22 521.987 1081.92 502.576 1117.25 497.585C1124.99 496.504 1133.34 496.102 1142.54 496.854C1173.22 499.107 1203.82 501.998 1234.72 504.601" stroke="url(#paint77_linear_267_221)" stroke-miterlimit="10"/>
<path d="M567.497 563.149C592.097 545.258 622.223 547.202 652.862 546.691C667.912 546.344 683.38 545.315 698.381 540.945C744.359 527.463 745.03 509.001 805.664 493.583C818.593 490.35 838.612 492.41 861.439 496.137C911.65 504.287 972.402 515.415 1007.05 514.157C1009.79 514.072 1012.35 514.007 1014.71 513.715C1055.78 509.273 1079.87 490.186 1115.2 485.194C1123.11 484.091 1131.46 483.69 1140.64 484.318C1171.48 486.427 1202.08 489.32 1233 492.047" stroke="url(#paint78_linear_267_221)" stroke-miterlimit="10"/>
<path d="M565.782 550.732C590.232 532.98 620.34 534.802 650.794 534.188C665.844 533.84 681.126 532.708 696.144 528.461C741.82 515.265 743.522 496.798 803.451 482.471C816.566 479.34 836.469 481.792 859.145 485.665C909.577 494.167 969.801 503.979 1004.89 502.163C1007.62 502.077 1010.17 501.889 1012.53 501.597C1053.38 496.803 1077.86 478.041 1113.17 472.924C1121.08 471.821 1129.43 471.42 1138.61 472.048C1169.6 474.013 1200.22 477.03 1231.14 479.758" stroke="url(#paint79_linear_267_221)" stroke-miterlimit="10"/>
<path d="M564.065 538.321C588.346 520.585 618.27 522.304 648.724 521.69C663.774 521.342 678.888 520.231 693.906 515.982C739.263 502.948 742.162 484.453 801.237 471.361C814.387 468.476 834.325 471.177 856.832 475.072C907.486 483.928 967.183 492.422 1002.71 490.048C1005.42 489.839 1007.97 489.65 1010.33 489.358C1050.96 484.213 1075.81 465.651 1111.13 460.532C1119.04 459.429 1127.56 459.006 1136.72 459.512C1167.69 461.353 1198.33 464.495 1229.59 467.183" stroke="url(#paint80_linear_267_221)" stroke-miterlimit="10"/>
<path d="M562.351 525.901C586.65 508.285 616.37 509.777 646.656 509.184C661.537 508.857 676.82 507.725 691.67 503.496C736.742 490.872 740.653 472.247 799.024 460.247C812.36 457.466 832.164 460.436 854.538 464.6C905.413 473.808 964.431 481.129 1000.73 478.155C1003.45 477.945 1005.99 477.757 1008.36 477.465C1048.75 471.844 1073.99 453.608 1109.47 448.467C1117.55 447.343 1125.88 446.817 1135.06 447.446C1166.2 449.267 1196.82 452.286 1228.08 454.975" stroke="url(#paint81_linear_267_221)" stroke-miterlimit="10"/>
<path d="M560.634 513.489C584.764 495.888 614.485 497.381 644.585 496.685C659.467 496.358 674.564 495.122 689.431 491.016C734.184 478.554 739.311 460.025 796.809 449.138C810.349 446.582 830.019 449.822 852.224 454.008C903.321 463.57 961.812 469.573 998.55 466.04C1001.27 465.83 1003.8 465.517 1006.16 465.226C1046.16 459.273 1071.96 441.34 1107.42 436.074C1115.48 434.826 1123.84 434.424 1133 434.929C1164.12 436.627 1194.93 439.75 1226.19 442.439" stroke="url(#paint82_linear_267_221)" stroke-miterlimit="10"/>
<path d="M558.901 500.957C582.881 483.496 612.399 484.762 642.499 484.066C657.212 483.76 672.31 482.523 687.177 478.416C731.628 466.239 737.953 447.683 794.41 437.93C808.154 435.6 827.691 439.109 849.727 443.318C901.231 453.337 959.008 457.917 996.183 453.825C998.882 453.492 1001.43 453.303 1003.77 452.887C1043.56 446.582 1069.73 428.849 1105.19 423.582C1113.25 422.333 1121.77 421.91 1130.92 422.292C1162.19 423.846 1193 426.97 1224.28 429.784" stroke="url(#paint83_linear_267_221)" stroke-miterlimit="10"/>
<path d="M557.187 488.54C581.015 471.219 610.516 472.362 640.431 471.563C655.127 471.132 670.056 469.917 684.941 465.932C729.089 454.042 736.461 435.604 792.197 426.82C806.127 424.593 825.547 428.495 847.433 432.85C899.158 443.223 956.257 446.628 994.02 441.831C996.718 441.498 999.248 441.185 1001.59 440.769C1041.15 434.111 1067.55 416.725 1103.16 411.312C1111.23 410.062 1119.75 409.639 1128.89 410.021C1160.15 411.451 1190.97 414.701 1222.59 417.474" stroke="url(#paint84_linear_267_221)" stroke-miterlimit="10"/>
<path d="M555.47 476.129C579.13 458.823 608.614 459.843 638.361 459.064C653.057 458.634 667.986 457.418 682.702 453.453C726.549 441.849 735.136 423.506 789.983 415.712C804.116 413.712 823.385 417.761 845.12 422.262C897.066 432.99 953.655 435.197 991.838 429.717C994.536 429.383 997.066 429.07 999.41 428.654C1038.75 421.643 1065.52 404.458 1101.3 399.022C1109.53 397.751 1118.04 397.204 1127.02 397.607C1158.42 398.893 1189.25 402.143 1220.87 404.917" stroke="url(#paint85_linear_267_221)" stroke-miterlimit="10"/>
<path d="M553.754 463.708C577.431 446.522 606.712 447.315 636.29 446.557C650.818 446.147 665.748 444.93 680.482 441.089C724.178 429.626 733.998 411.505 787.786 404.723C802.122 402.949 821.258 407.269 842.841 411.916C895.009 422.998 951.07 423.883 989.69 417.843C992.371 417.385 994.901 417.072 997.245 416.656C1036.2 409.313 1063.5 392.308 1099.29 386.871C1107.52 385.6 1116.03 385.053 1125.17 385.435C1156.73 386.577 1187.58 389.952 1219.19 392.727" stroke="url(#paint86_linear_267_221)" stroke-miterlimit="10"/>
<path d="M552.039 451.296C575.548 434.125 604.66 434.939 634.222 434.057C648.75 433.647 663.494 432.327 678.245 428.608C721.639 417.432 732.692 399.531 785.572 393.617C800.095 391.945 819.283 396.638 840.53 401.329C892.936 412.89 948.301 412.474 987.509 405.728C990.191 405.27 992.704 404.833 995.048 404.417C1033.76 396.596 1061.48 380.04 1097.25 374.477C1105.48 373.206 1113.98 372.658 1123.11 372.916C1154.65 373.935 1185.51 377.435 1217.47 380.169" stroke="url(#paint87_linear_267_221)" stroke-miterlimit="10"/>
<path d="M550.306 438.758C573.665 421.728 602.743 422.294 632.136 421.432C646.495 421.043 661.408 419.702 675.991 416.003C719.083 405.114 731.351 387.31 783.342 382.389C798.068 380.944 817.122 385.907 838.217 390.744C890.845 402.66 945.7 401.045 985.328 393.614C988.01 393.156 990.522 392.719 992.849 392.178C1031.34 384.004 1059.43 367.65 1095.2 362.086C1103.43 360.815 1112.1 360.246 1121.23 360.504C1152.93 361.378 1183.79 364.879 1215.76 367.738" stroke="url(#paint88_linear_267_221)" stroke-miterlimit="10"/>
<path d="M548.591 426.348C571.799 409.457 600.843 409.775 630.068 408.934C644.427 408.545 659.153 407.1 673.754 403.524C716.526 392.797 730.045 375.338 781.128 371.285C796.058 370.068 814.961 375.178 835.906 380.161C888.923 392.412 942.93 389.638 983.147 381.501C985.812 380.919 988.324 380.481 990.668 380.065C1028.94 371.537 1057.42 355.508 1093.34 349.797C1101.74 348.505 1110.24 347.957 1119.36 348.091C1151.03 348.841 1182.08 352.447 1214.04 355.182" stroke="url(#paint89_linear_267_221)" stroke-miterlimit="10"/>
<path d="M546.878 413.933C569.918 397.058 598.793 397.398 628.001 396.432C642.343 395.919 656.918 394.619 671.519 391.042C713.989 380.602 728.741 363.365 778.917 360.181C794.051 359.191 812.819 364.571 833.764 369.556C887.02 382.286 940.482 378.064 981.305 369.344C983.969 368.762 986.482 368.324 988.809 367.783C1026.86 358.901 1055.54 343.096 1091.64 337.362C1100.03 336.069 1108.69 335.376 1117.65 335.656C1149.48 336.261 1180.53 339.868 1212.67 342.708" stroke="url(#paint90_linear_267_221)" stroke-miterlimit="10"/>
<path d="M545.165 401.512C568.221 384.758 596.893 384.87 625.933 383.926C640.106 383.433 654.682 382.133 669.283 378.555C711.451 368.404 727.453 351.513 776.687 348.951C792.024 348.188 810.658 353.839 831.451 358.97C884.929 372.054 937.881 366.631 979.123 357.226C981.787 356.644 984.283 356.082 986.778 355.52C1024.44 346.305 1053.66 330.683 1089.76 324.948C1098.16 323.655 1106.81 322.962 1115.92 323.096C1147.74 323.577 1178.8 327.309 1211.11 330.129" stroke="url(#paint91_linear_267_221)" stroke-miterlimit="10"/>
<path d="M543.451 389.071C566.339 372.338 594.993 372.326 623.864 371.402C638.038 370.91 652.596 369.485 667.046 366.053C708.893 356.068 726.146 339.528 774.471 337.836C790.011 337.301 808.512 343.221 829.137 348.373C882.835 361.809 935.125 355.33 976.938 345.097C979.602 344.514 982.097 343.952 984.576 343.266C1022.02 333.7 1051.63 318.409 1087.71 312.55C1096.09 311.132 1104.76 310.563 1113.87 310.698C1145.84 311.034 1176.9 314.766 1209.23 317.709" stroke="url(#paint92_linear_267_221)" stroke-miterlimit="10"/>
<path d="M541.721 376.505C564.458 359.918 593.095 359.781 621.78 358.754C635.785 358.283 650.343 356.858 664.792 353.426C706.337 343.731 725.008 327.522 772.071 326.619C787.983 326.29 806.182 332.5 826.655 337.796C880.591 351.707 932.352 343.905 974.585 332.989C977.231 332.282 979.727 331.72 982.223 331.158C1019.45 321.241 1049.43 306.156 1085.67 300.277C1094.22 298.839 1102.89 298.27 1111.99 298.28C1144.12 298.595 1175.19 302.327 1207.67 305.125" stroke="url(#paint93_linear_267_221)" stroke-miterlimit="10"/>
<path d="M540.007 364.06C562.592 347.619 591.026 347.255 619.711 346.228C633.716 345.757 648.088 344.229 662.554 340.921C703.797 331.517 723.718 315.659 769.855 315.502C785.971 315.401 804.035 321.88 824.34 327.197C878.496 341.458 929.747 332.457 972.398 320.857C975.045 320.15 977.541 319.588 980.019 318.902C1017.04 308.758 1047.38 293.757 1083.62 287.878C1092.17 286.44 1100.82 285.747 1109.94 285.881C1142.05 286.072 1173.13 289.927 1205.78 292.705" stroke="url(#paint94_linear_267_221)" stroke-miterlimit="10"/>
<path d="M538.294 351.614C560.711 335.195 589.127 334.707 617.643 333.701C631.479 333.251 646.02 331.702 660.318 328.415C701.24 319.178 722.428 303.796 767.64 304.385C783.976 304.635 801.89 311.259 822.025 316.596C876.42 331.333 926.974 321.029 970.213 308.725C972.86 308.019 975.338 307.333 977.816 306.647C1014.45 296.173 1045.34 281.483 1081.57 275.48C1090.12 274.042 1098.94 273.328 1107.87 273.359C1140.13 273.404 1171.22 277.26 1203.88 280.161" stroke="url(#paint95_linear_267_221)" stroke-miterlimit="10"/>
<path d="M536.581 339.159C559.015 322.867 587.245 322.276 615.575 321.167C629.393 320.592 643.766 319.065 658.098 316.027C698.718 307.081 721.156 292.051 765.442 293.386C781.982 293.864 799.743 300.631 819.745 306.237C874.359 321.323 924.42 309.945 968.061 296.836C970.69 296.005 973.185 295.443 975.646 294.633C1012.06 283.809 1043.15 269.348 1079.72 263.305C1088.44 261.846 1097.09 261.153 1106.17 261.039C1138.42 260.96 1169.69 264.918 1202.52 267.798" stroke="url(#paint96_linear_267_221)" stroke-miterlimit="10"/>
<path d="M534.851 326.589C557.116 310.319 585.16 309.625 613.489 308.516C627.308 307.941 641.511 306.435 655.844 303.397C696.16 294.742 719.866 280.189 763.209 282.146C779.952 282.851 797.58 289.886 817.412 295.513C872.265 311.072 921.797 298.371 965.857 284.581C968.318 283.771 970.965 283.064 973.425 282.254C1009.61 271.08 1041.1 256.952 1077.65 250.784C1086.37 249.326 1095.19 248.612 1104.1 248.519C1136.5 248.295 1167.77 252.253 1200.6 255.132" stroke="url(#paint97_linear_267_221)" stroke-miterlimit="10"/>
<path d="M533.138 314.136C555.252 298.014 583.278 297.196 611.422 295.984C625.071 295.43 639.275 293.924 653.607 290.887C693.603 282.4 718.593 268.447 760.993 271.026C777.957 272.082 795.433 279.261 815.114 285.031C870.205 301.063 919.225 287.166 963.687 272.57C966.148 271.76 968.795 271.054 971.255 270.244C1007.22 258.72 1039.08 244.801 1075.63 238.635C1084.35 237.177 1093.15 236.339 1102.23 236.225C1134.78 235.856 1165.9 239.958 1198.9 242.816" stroke="url(#paint98_linear_267_221)" stroke-miterlimit="10"/>
<path d="M531.427 301.686C553.389 285.712 581.381 284.645 609.355 283.454C623.005 282.901 637.191 281.271 651.372 278.379C691.233 270.162 717.305 256.583 758.78 259.907C775.946 261.19 793.288 268.637 812.801 274.427C868.112 290.808 916.452 275.734 961.688 260.54C964.148 259.731 966.778 258.9 969.239 258.091C1004.99 246.217 1037.22 232.507 1073.76 226.342C1082.48 224.883 1091.29 224.046 1100.36 223.932C1132.9 223.439 1164.18 227.519 1197.37 230.48" stroke="url(#paint99_linear_267_221)" stroke-miterlimit="10"/>
<path d="M529.716 289.232C551.509 273.283 579.483 272.092 607.288 270.923C620.77 270.39 634.955 268.76 649.136 265.869C688.694 257.944 715.864 244.863 756.565 248.786C773.783 250.441 791.143 258.011 810.504 263.945C866.052 280.797 913.882 264.528 959.518 248.53C961.962 247.596 964.591 246.766 967.052 245.957C1002.6 233.859 1035.2 220.358 1071.89 214.049C1080.78 212.57 1089.59 211.733 1098.48 211.515C1131.16 210.878 1162.47 215.081 1195.65 218.041" stroke="url(#paint100_linear_267_221)" stroke-miterlimit="10"/>
<path d="M528.003 276.782C549.813 260.96 577.432 259.687 605.22 258.393C618.701 257.861 632.701 256.128 646.899 253.362C686.138 245.604 714.592 233.123 754.349 237.667C771.788 239.673 788.996 247.386 808.188 253.34C863.957 270.54 911.293 253.199 957.331 236.397C959.774 235.464 962.404 234.634 964.847 233.701C1000 221.275 1033.14 207.961 1069.84 201.654C1078.73 200.175 1087.53 199.338 1096.59 199.1C1129.26 198.339 1160.58 202.665 1193.92 205.479" stroke="url(#paint101_linear_267_221)" stroke-miterlimit="10"/>
<path d="M526.275 264.211C547.916 248.413 575.518 247.016 603.137 245.744C616.601 245.087 630.449 243.5 644.647 240.734C683.582 233.267 713.321 221.387 752.118 226.428C769.778 228.784 786.666 236.662 805.858 242.614C861.864 260.285 908.671 241.626 955.129 224.145C957.572 223.211 960.184 222.258 962.644 221.448C997.577 208.673 1030.94 195.714 1067.79 189.263C1076.66 187.661 1085.63 186.803 1094.52 186.586C1127.34 185.679 1158.66 190.005 1192.18 192.922" stroke="url(#paint102_linear_267_221)" stroke-miterlimit="10"/>
<path d="M524.564 251.758C546.054 236.109 573.621 234.465 601.071 233.213C614.365 232.578 628.365 230.846 642.411 228.226C681.026 220.926 711.881 209.668 749.735 215.328C767.598 217.911 784.351 226.055 803.392 232.15C859.467 250.313 905.931 230.439 952.79 212.157C955.233 211.224 957.845 210.27 960.289 209.337C995 196.214 1028.73 183.465 1065.58 177.015C1074.45 175.413 1083.43 174.556 1092.32 174.339C1125.27 173.163 1156.62 177.736 1190.15 180.652" stroke="url(#paint103_linear_267_221)" stroke-miterlimit="10"/>
<path d="M522.852 239.308C544.19 223.807 571.571 222.06 599.003 220.685C612.298 220.05 626.128 218.339 640.175 215.719C678.486 208.712 710.439 197.951 747.519 204.209C765.434 207.164 782.204 215.429 801.076 221.544C857.389 240.177 903.342 219.11 950.602 200.025C953.028 198.969 955.64 198.015 958.083 197.083C992.591 183.736 1026.68 171.072 1063.69 164.603C1072.73 162.98 1081.54 162.144 1090.58 161.782C1123.52 160.483 1155.04 165.033 1188.58 168.073" stroke="url(#paint104_linear_267_221)" stroke-miterlimit="10"/>
<path d="M521.142 226.856C542.479 211.36 569.674 209.51 596.937 208.156C610.063 207.541 623.893 205.831 637.957 203.336C675.965 196.619 709.017 186.356 745.305 193.089C763.457 196.517 780.059 204.802 798.779 211.059C855.312 230.039 900.772 207.903 948.433 188.017C950.859 186.961 953.471 186.008 955.896 184.951C990.183 171.257 1024.66 158.926 1061.66 152.334C1070.7 150.712 1079.67 149.855 1088.54 149.514C1121.65 148.195 1153 152.764 1186.69 155.658" stroke="url(#paint105_linear_267_221)" stroke-miterlimit="10"/>
<path d="M519.431 214.407C540.617 199.059 567.776 196.962 594.871 195.629C607.996 195.015 621.809 193.181 635.721 190.831C673.41 184.282 707.594 174.763 743.09 181.97C761.463 185.748 777.914 194.175 796.465 200.452C853.235 219.901 898.183 196.574 946.246 175.887C948.672 174.831 951.266 173.754 953.709 172.822C987.775 158.78 1022.62 146.658 1059.62 140.069C1068.66 138.447 1077.62 137.466 1086.66 137.104C1119.74 135.661 1151.26 140.209 1185.14 143.205" stroke="url(#paint106_linear_267_221)" stroke-miterlimit="10"/>
<path d="M517.705 201.838C538.722 186.515 565.881 184.419 592.789 182.983C605.914 182.369 619.558 180.557 633.47 178.208C670.838 171.826 706.138 162.928 740.859 170.732C759.284 174.881 775.752 183.429 794.152 189.848C851.159 209.766 895.764 185.228 944.06 163.763C946.486 162.707 948.911 161.651 951.506 160.575C985.368 146.311 1020.59 134.398 1057.57 127.687C1066.77 126.045 1075.73 125.064 1084.59 124.599C1117.82 123.012 1149.36 127.682 1183.24 130.677" stroke="url(#paint107_linear_267_221)" stroke-miterlimit="10"/>
<path d="M515.994 189.391C536.86 174.217 563.815 171.894 590.723 170.459C603.662 169.742 617.306 167.931 631.235 165.706C668.299 159.615 704.715 151.337 738.645 159.615C757.122 164.134 773.606 172.803 791.837 179.242C848.914 199.649 893.176 173.901 941.872 151.636C944.298 150.58 946.707 149.401 949.301 148.325C982.942 133.714 1018.37 122.032 1055.68 115.28C1064.89 113.639 1073.84 112.658 1082.7 112.194C1116.09 110.462 1147.47 115.275 1181.52 118.248" stroke="url(#paint108_linear_267_221)" stroke-miterlimit="10"/>
<path d="M514.286 176.945C535 161.92 561.937 159.474 588.659 157.936C601.598 157.219 615.073 155.429 629.001 153.205C665.763 147.405 703.108 139.644 736.432 148.498C755.147 153.489 771.463 162.177 789.525 168.635C846.839 189.51 890.589 162.573 939.856 139.489C942.264 138.31 944.69 137.254 947.267 136.055C980.704 121.221 1016.48 109.624 1053.8 102.875C1063 101.234 1071.96 100.253 1080.97 99.6444C1114.33 97.7893 1145.89 102.58 1180.1 105.532" stroke="url(#paint109_linear_267_221)" stroke-miterlimit="10"/>
<path d="M512.579 164.501C533.292 149.482 560.043 146.934 586.595 145.418C633.425 142.908 689.338 124.424 734.051 137.406C752.817 142.767 769.15 151.575 787.06 158.174C844.611 179.515 887.85 151.393 937.517 127.513C972.717 110.58 1011.46 98.1177 1051.61 90.769C1095.77 82.6731 1134.82 89.5569 1178.08 93.4038" stroke="url(#paint110_linear_267_221)" stroke-miterlimit="10"/>
<defs>
<linearGradient id="paint0_linear_267_221" x1="276.946" y1="649.009" x2="269.871" y2="591.546" gradientUnits="userSpaceOnUse">
<stop stop-color="#D3D3D3"/>
<stop offset="1"/>
</linearGradient>
<linearGradient id="paint1_linear_267_221" x1="275.231" y1="636.564" x2="268.321" y2="580.458" gradientUnits="userSpaceOnUse">
<stop stop-color="white"/>
<stop offset="1"/>
</linearGradient>
<linearGradient id="paint2_linear_267_221" x1="273.515" y1="624.116" x2="266.768" y2="569.349" gradientUnits="userSpaceOnUse">
<stop stop-color="white"/>
<stop offset="1"/>
</linearGradient>
<linearGradient id="paint3_linear_267_221" x1="271.8" y1="611.671" x2="265.216" y2="558.237" gradientUnits="userSpaceOnUse">
<stop stop-color="white"/>
<stop offset="1"/>
</linearGradient>
<linearGradient id="paint4_linear_267_221" x1="270.086" y1="599.226" x2="263.662" y2="547.111" gradientUnits="userSpaceOnUse">
<stop stop-color="white"/>
<stop offset="1"/>
</linearGradient>
<linearGradient id="paint5_linear_267_221" x1="268.371" y1="586.777" x2="262.108" y2="535.975" gradientUnits="userSpaceOnUse">
<stop stop-color="white"/>
<stop offset="1"/>
</linearGradient>
<linearGradient id="paint6_linear_267_221" x1="266.657" y1="574.331" x2="260.552" y2="524.829" gradientUnits="userSpaceOnUse">
<stop stop-color="white"/>
<stop offset="1"/>
</linearGradient>
<linearGradient id="paint7_linear_267_221" x1="264.942" y1="561.879" x2="258.995" y2="513.672" gradientUnits="userSpaceOnUse">
<stop stop-color="white"/>
<stop offset="1"/>
</linearGradient>
<linearGradient id="paint8_linear_267_221" x1="263.227" y1="549.432" x2="257.437" y2="502.507" gradientUnits="userSpaceOnUse">
<stop stop-color="white"/>
<stop offset="1"/>
</linearGradient>
<linearGradient id="paint9_linear_267_221" x1="261.512" y1="536.99" x2="255.877" y2="491.337" gradientUnits="userSpaceOnUse">
<stop stop-color="white"/>
<stop offset="1"/>
</linearGradient>
<linearGradient id="paint10_linear_267_221" x1="259.797" y1="524.54" x2="254.317" y2="480.152" gradientUnits="userSpaceOnUse">
<stop stop-color="white"/>
<stop offset="1"/>
</linearGradient>
<linearGradient id="paint11_linear_267_221" x1="258.083" y1="512.095" x2="252.755" y2="468.96" gradientUnits="userSpaceOnUse">
<stop stop-color="white"/>
<stop offset="1"/>
</linearGradient>
<linearGradient id="paint12_linear_267_221" x1="256.368" y1="499.64" x2="251.193" y2="457.751" gradientUnits="userSpaceOnUse">
<stop stop-color="white"/>
<stop offset="1"/>
</linearGradient>
<linearGradient id="paint13_linear_267_221" x1="254.654" y1="487.194" x2="249.627" y2="446.523" gradientUnits="userSpaceOnUse">
<stop stop-color="white"/>
<stop offset="1"/>
</linearGradient>
<linearGradient id="paint14_linear_267_221" x1="252.938" y1="474.746" x2="248.055" y2="435.245" gradientUnits="userSpaceOnUse">
<stop stop-color="#F9F9F9"/>
<stop offset="1"/>
</linearGradient>
<linearGradient id="paint15_linear_267_221" x1="251.225" y1="462.302" x2="246.479" y2="423.922" gradientUnits="userSpaceOnUse">
<stop stop-color="white"/>
<stop offset="1"/>
</linearGradient>
<linearGradient id="paint16_linear_267_221" x1="249.51" y1="449.854" x2="244.897" y2="412.557" gradientUnits="userSpaceOnUse">
<stop stop-color="white"/>
<stop offset="1"/>
</linearGradient>
<linearGradient id="paint17_linear_267_221" x1="247.856" y1="437.825" x2="243.319" y2="401.154" gradientUnits="userSpaceOnUse">
<stop stop-color="white"/>
<stop offset="1"/>
</linearGradient>
<linearGradient id="paint18_linear_267_221" x1="246.281" y1="426.381" x2="241.744" y2="389.709" gradientUnits="userSpaceOnUse">
<stop stop-color="white"/>
<stop offset="1"/>
</linearGradient>
<linearGradient id="paint19_linear_267_221" x1="244.722" y1="415.041" x2="240.169" y2="378.236" gradientUnits="userSpaceOnUse">
<stop stop-color="white"/>
<stop offset="1"/>
</linearGradient>
<linearGradient id="paint20_linear_267_221" x1="243.173" y1="403.79" x2="238.589" y2="366.733" gradientUnits="userSpaceOnUse">
<stop stop-color="white"/>
<stop offset="1"/>
</linearGradient>
<linearGradient id="paint21_linear_267_221" x1="241.638" y1="392.62" x2="237.01" y2="355.201" gradientUnits="userSpaceOnUse">
<stop stop-color="white"/>
<stop offset="1"/>
</linearGradient>
<linearGradient id="paint22_linear_267_221" x1="240.111" y1="381.512" x2="235.427" y2="343.637" gradientUnits="userSpaceOnUse">
<stop stop-color="white"/>
<stop offset="1"/>
</linearGradient>
<linearGradient id="paint23_linear_267_221" x1="238.593" y1="370.474" x2="233.842" y2="332.053" gradientUnits="userSpaceOnUse">
<stop stop-color="white"/>
<stop offset="1"/>
</linearGradient>
<linearGradient id="paint24_linear_267_221" x1="237.082" y1="359.482" x2="232.254" y2="320.436" gradientUnits="userSpaceOnUse">
<stop stop-color="white"/>
<stop offset="1"/>
</linearGradient>
<linearGradient id="paint25_linear_267_221" x1="235.577" y1="348.539" x2="230.664" y2="308.791" gradientUnits="userSpaceOnUse">
<stop stop-color="white"/>
<stop offset="1"/>
</linearGradient>
<linearGradient id="paint26_linear_267_221" x1="234.077" y1="337.632" x2="229.069" y2="297.113" gradientUnits="userSpaceOnUse">
<stop stop-color="white"/>
<stop offset="1"/>
</linearGradient>
<linearGradient id="paint27_linear_267_221" x1="232.584" y1="326.762" x2="227.474" y2="285.402" gradientUnits="userSpaceOnUse">
<stop stop-color="white"/>
<stop offset="1"/>
</linearGradient>
<linearGradient id="paint28_linear_267_221" x1="231.094" y1="315.924" x2="225.873" y2="273.657" gradientUnits="userSpaceOnUse">
<stop stop-color="white"/>
<stop offset="1"/>
</linearGradient>
<linearGradient id="paint29_linear_267_221" x1="229.609" y1="305.108" x2="224.269" y2="261.869" gradientUnits="userSpaceOnUse">
<stop stop-color="white"/>
<stop offset="1"/>
</linearGradient>
<linearGradient id="paint30_linear_267_221" x1="228.125" y1="294.317" x2="222.658" y2="250.038" gradientUnits="userSpaceOnUse">
<stop stop-color="white"/>
<stop offset="1"/>
</linearGradient>
<linearGradient id="paint31_linear_267_221" x1="226.645" y1="283.545" x2="221.042" y2="238.156" gradientUnits="userSpaceOnUse">
<stop stop-color="white"/>
<stop offset="1"/>
</linearGradient>
<linearGradient id="paint32_linear_267_221" x1="225.168" y1="272.792" x2="219.419" y2="226.205" gradientUnits="userSpaceOnUse">
<stop stop-color="white"/>
<stop offset="1"/>
</linearGradient>
<linearGradient id="paint33_linear_267_221" x1="223.695" y1="262.059" x2="217.793" y2="214.224" gradientUnits="userSpaceOnUse">
<stop stop-color="white"/>
<stop offset="1"/>
</linearGradient>
<linearGradient id="paint34_linear_267_221" x1="222.222" y1="251.339" x2="216.159" y2="202.179" gradientUnits="userSpaceOnUse">
<stop stop-color="white"/>
<stop offset="1"/>
</linearGradient>
<linearGradient id="paint35_linear_267_221" x1="220.755" y1="240.658" x2="214.511" y2="190.013" gradientUnits="userSpaceOnUse">
<stop stop-color="#DBDBDB"/>
<stop offset="1"/>
</linearGradient>
<linearGradient id="paint36_linear_267_221" x1="219.282" y1="229.938" x2="212.819" y2="177.501" gradientUnits="userSpaceOnUse">
<stop stop-color="#DBDBDB"/>
<stop offset="1"/>
</linearGradient>
<linearGradient id="paint37_linear_267_221" x1="1565.01" y1="516.807" x2="1557.92" y2="459.346" gradientUnits="userSpaceOnUse">
<stop stop-color="white"/>
<stop offset="1"/>
</linearGradient>
<linearGradient id="paint38_linear_267_221" x1="1563.3" y1="504.362" x2="1556.37" y2="448.258" gradientUnits="userSpaceOnUse">
<stop stop-color="white"/>
<stop offset="1"/>
</linearGradient>
<linearGradient id="paint39_linear_267_221" x1="1561.58" y1="491.915" x2="1554.82" y2="437.149" gradientUnits="userSpaceOnUse">
<stop stop-color="white"/>
<stop offset="1"/>
</linearGradient>
<linearGradient id="paint40_linear_267_221" x1="1559.87" y1="479.469" x2="1553.27" y2="426.036" gradientUnits="userSpaceOnUse">
<stop stop-color="white"/>
<stop offset="1"/>
</linearGradient>
<linearGradient id="paint41_linear_267_221" x1="1558.15" y1="467.025" x2="1551.72" y2="414.911" gradientUnits="userSpaceOnUse">
<stop stop-color="white"/>
<stop offset="1"/>
</linearGradient>
<linearGradient id="paint42_linear_267_221" x1="1556.44" y1="454.575" x2="1550.16" y2="403.774" gradientUnits="userSpaceOnUse">
<stop stop-color="white"/>
<stop offset="1"/>
</linearGradient>
<linearGradient id="paint43_linear_267_221" x1="1554.72" y1="442.129" x2="1548.61" y2="392.629" gradientUnits="userSpaceOnUse">
<stop stop-color="white"/>
<stop offset="1"/>
</linearGradient>
<linearGradient id="paint44_linear_267_221" x1="1553.01" y1="429.677" x2="1547.05" y2="381.472" gradientUnits="userSpaceOnUse">
<stop stop-color="white"/>
<stop offset="1"/>
</linearGradient>
<linearGradient id="paint45_linear_267_221" x1="1551.29" y1="417.231" x2="1545.49" y2="370.307" gradientUnits="userSpaceOnUse">
<stop stop-color="white"/>
<stop offset="1"/>
</linearGradient>
<linearGradient id="paint46_linear_267_221" x1="1549.58" y1="404.789" x2="1543.93" y2="359.137" gradientUnits="userSpaceOnUse">
<stop stop-color="white"/>
<stop offset="1"/>
</linearGradient>
<linearGradient id="paint47_linear_267_221" x1="1547.86" y1="392.339" x2="1542.37" y2="347.952" gradientUnits="userSpaceOnUse">
<stop stop-color="white"/>
<stop offset="1"/>
</linearGradient>
<linearGradient id="paint48_linear_267_221" x1="1546.15" y1="379.893" x2="1540.81" y2="336.759" gradientUnits="userSpaceOnUse">
<stop stop-color="white"/>
<stop offset="1"/>
</linearGradient>
<linearGradient id="paint49_linear_267_221" x1="1544.43" y1="367.439" x2="1539.25" y2="325.551" gradientUnits="userSpaceOnUse">
<stop stop-color="white"/>
<stop offset="1"/>
</linearGradient>
<linearGradient id="paint50_linear_267_221" x1="1542.72" y1="354.992" x2="1537.68" y2="314.323" gradientUnits="userSpaceOnUse">
<stop stop-color="white"/>
<stop offset="1"/>
</linearGradient>
<linearGradient id="paint51_linear_267_221" x1="1541" y1="342.545" x2="1536.11" y2="303.045" gradientUnits="userSpaceOnUse">
<stop stop-color="white"/>
<stop offset="1"/>
</linearGradient>
<linearGradient id="paint52_linear_267_221" x1="1539.29" y1="330.1" x2="1534.53" y2="291.721" gradientUnits="userSpaceOnUse">
<stop stop-color="white"/>
<stop offset="1"/>
</linearGradient>
<linearGradient id="paint53_linear_267_221" x1="1537.57" y1="317.652" x2="1532.95" y2="280.355" gradientUnits="userSpaceOnUse">
<stop stop-color="white"/>
<stop offset="1"/>
</linearGradient>
<linearGradient id="paint54_linear_267_221" x1="1535.92" y1="305.623" x2="1531.37" y2="268.953" gradientUnits="userSpaceOnUse">
<stop stop-color="white"/>
<stop offset="1"/>
</linearGradient>
<linearGradient id="paint55_linear_267_221" x1="1534.34" y1="294.18" x2="1529.8" y2="257.509" gradientUnits="userSpaceOnUse">
<stop stop-color="white"/>
<stop offset="1"/>
</linearGradient>
<linearGradient id="paint56_linear_267_221" x1="1532.78" y1="282.84" x2="1528.22" y2="246.036" gradientUnits="userSpaceOnUse">
<stop stop-color="white"/>
<stop offset="1"/>
</linearGradient>
<linearGradient id="paint57_linear_267_221" x1="1531.24" y1="271.589" x2="1526.64" y2="234.533" gradientUnits="userSpaceOnUse">
<stop stop-color="white"/>
<stop offset="1"/>
</linearGradient>
<linearGradient id="paint58_linear_267_221" x1="1529.7" y1="260.419" x2="1525.06" y2="223.001" gradientUnits="userSpaceOnUse">
<stop stop-color="white"/>
<stop offset="1"/>
</linearGradient>
<linearGradient id="paint59_linear_267_221" x1="1528.17" y1="249.311" x2="1523.48" y2="211.437" gradientUnits="userSpaceOnUse">
<stop stop-color="white"/>
<stop offset="1"/>
</linearGradient>
<linearGradient id="paint60_linear_267_221" x1="1526.65" y1="238.272" x2="1521.9" y2="199.852" gradientUnits="userSpaceOnUse">
<stop stop-color="white"/>
<stop offset="1"/>
</linearGradient>
<linearGradient id="paint61_linear_267_221" x1="1525.14" y1="227.281" x2="1520.31" y2="188.236" gradientUnits="userSpaceOnUse">
<stop stop-color="white"/>
<stop offset="1"/>
</linearGradient>
<linearGradient id="paint62_linear_267_221" x1="1523.64" y1="216.337" x2="1518.72" y2="176.59" gradientUnits="userSpaceOnUse">
<stop stop-color="white"/>
<stop offset="1"/>
</linearGradient>
<linearGradient id="paint63_linear_267_221" x1="1522.14" y1="205.43" x2="1517.13" y2="164.912" gradientUnits="userSpaceOnUse">
<stop stop-color="white"/>
<stop offset="1"/>
</linearGradient>
<linearGradient id="paint64_linear_267_221" x1="1520.65" y1="194.56" x2="1515.53" y2="153.202" gradientUnits="userSpaceOnUse">
<stop stop-color="white"/>
<stop offset="1"/>
</linearGradient>
<linearGradient id="paint65_linear_267_221" x1="1519.16" y1="183.724" x2="1513.93" y2="141.457" gradientUnits="userSpaceOnUse">
<stop stop-color="white"/>
<stop offset="1"/>
</linearGradient>
<linearGradient id="paint66_linear_267_221" x1="1517.67" y1="172.907" x2="1512.32" y2="129.669" gradientUnits="userSpaceOnUse">
<stop stop-color="white"/>
<stop offset="1"/>
</linearGradient>
<linearGradient id="paint67_linear_267_221" x1="1516.19" y1="162.116" x2="1510.71" y2="117.837" gradientUnits="userSpaceOnUse">
<stop stop-color="white"/>
<stop offset="1"/>
</linearGradient>
<linearGradient id="paint68_linear_267_221" x1="1514.71" y1="151.343" x2="1509.1" y2="105.956" gradientUnits="userSpaceOnUse">
<stop stop-color="white"/>
<stop offset="1"/>
</linearGradient>
<linearGradient id="paint69_linear_267_221" x1="1513.23" y1="140.591" x2="1507.47" y2="94.005" gradientUnits="userSpaceOnUse">
<stop stop-color="white"/>
<stop offset="1"/>
</linearGradient>
<linearGradient id="paint70_linear_267_221" x1="1511.76" y1="129.858" x2="1505.85" y2="82.0243" gradientUnits="userSpaceOnUse">
<stop stop-color="white"/>
<stop offset="1"/>
</linearGradient>
<linearGradient id="paint71_linear_267_221" x1="1510.28" y1="119.138" x2="1504.21" y2="69.979" gradientUnits="userSpaceOnUse">
<stop stop-color="white"/>
<stop offset="1"/>
</linearGradient>
<linearGradient id="paint72_linear_267_221" x1="1508.82" y1="108.457" x2="1502.56" y2="57.8134" gradientUnits="userSpaceOnUse">
<stop stop-color="#E6E6E6"/>
<stop offset="1"/>
</linearGradient>
<linearGradient id="paint73_linear_267_221" x1="1507.35" y1="97.7363" x2="1500.87" y2="45.3002" gradientUnits="userSpaceOnUse">
<stop stop-color="#D5D5D5"/>
<stop offset="1"/>
</linearGradient>
<linearGradient id="paint74_linear_267_221" x1="907.881" y1="583.538" x2="900.793" y2="526.078" gradientUnits="userSpaceOnUse">
<stop stop-color="white"/>
<stop offset="1"/>
</linearGradient>
<linearGradient id="paint75_linear_267_221" x1="906.167" y1="571.094" x2="899.244" y2="514.989" gradientUnits="userSpaceOnUse">
<stop stop-color="white"/>
<stop offset="1"/>
</linearGradient>
<linearGradient id="paint76_linear_267_221" x1="904.45" y1="558.647" x2="897.69" y2="503.881" gradientUnits="userSpaceOnUse">
<stop stop-color="white"/>
<stop offset="1"/>
</linearGradient>
<linearGradient id="paint77_linear_267_221" x1="902.735" y1="546.201" x2="896.139" y2="492.767" gradientUnits="userSpaceOnUse">
<stop stop-color="white"/>
<stop offset="1"/>
</linearGradient>
<linearGradient id="paint78_linear_267_221" x1="901.02" y1="533.756" x2="894.585" y2="481.643" gradientUnits="userSpaceOnUse">
<stop stop-color="white"/>
<stop offset="1"/>
</linearGradient>
<linearGradient id="paint79_linear_267_221" x1="899.305" y1="521.306" x2="893.031" y2="470.506" gradientUnits="userSpaceOnUse">
<stop stop-color="white"/>
<stop offset="1"/>
</linearGradient>
<linearGradient id="paint80_linear_267_221" x1="897.59" y1="508.861" x2="891.474" y2="459.361" gradientUnits="userSpaceOnUse">
<stop stop-color="white"/>
<stop offset="1"/>
</linearGradient>
<linearGradient id="paint81_linear_267_221" x1="895.875" y1="496.409" x2="889.918" y2="448.203" gradientUnits="userSpaceOnUse">
<stop stop-color="white"/>
<stop offset="1"/>
</linearGradient>
<linearGradient id="paint82_linear_267_221" x1="894.16" y1="483.963" x2="888.36" y2="437.038" gradientUnits="userSpaceOnUse">
<stop stop-color="white"/>
<stop offset="1"/>
</linearGradient>
<linearGradient id="paint83_linear_267_221" x1="892.445" y1="471.52" x2="886.801" y2="425.868" gradientUnits="userSpaceOnUse">
<stop stop-color="white"/>
<stop offset="1"/>
</linearGradient>
<linearGradient id="paint84_linear_267_221" x1="890.731" y1="459.07" x2="885.242" y2="414.683" gradientUnits="userSpaceOnUse">
<stop stop-color="white"/>
<stop offset="1"/>
</linearGradient>
<linearGradient id="paint85_linear_267_221" x1="889.015" y1="446.625" x2="883.679" y2="403.491" gradientUnits="userSpaceOnUse">
<stop stop-color="white"/>
<stop offset="1"/>
</linearGradient>
<linearGradient id="paint86_linear_267_221" x1="887.299" y1="434.17" x2="882.116" y2="392.283" gradientUnits="userSpaceOnUse">
<stop stop-color="white"/>
<stop offset="1"/>
</linearGradient>
<linearGradient id="paint87_linear_267_221" x1="885.585" y1="421.724" x2="880.551" y2="381.054" gradientUnits="userSpaceOnUse">
<stop stop-color="white"/>
<stop offset="1"/>
</linearGradient>
<linearGradient id="paint88_linear_267_221" x1="883.87" y1="409.277" x2="878.98" y2="369.776" gradientUnits="userSpaceOnUse">
<stop stop-color="white"/>
<stop offset="1"/>
</linearGradient>
<linearGradient id="paint89_linear_267_221" x1="882.155" y1="396.831" x2="877.403" y2="358.452" gradientUnits="userSpaceOnUse">
<stop stop-color="white"/>
<stop offset="1"/>
</linearGradient>
<linearGradient id="paint90_linear_267_221" x1="880.443" y1="384.383" x2="875.823" y2="347.087" gradientUnits="userSpaceOnUse">
<stop stop-color="white"/>
<stop offset="1"/>
</linearGradient>
<linearGradient id="paint91_linear_267_221" x1="878.787" y1="372.354" x2="874.244" y2="335.684" gradientUnits="userSpaceOnUse">
<stop stop-color="white"/>
<stop offset="1"/>
</linearGradient>
<linearGradient id="paint92_linear_267_221" x1="877.212" y1="360.912" x2="872.669" y2="324.241" gradientUnits="userSpaceOnUse">
<stop stop-color="white"/>
<stop offset="1"/>
</linearGradient>
<linearGradient id="paint93_linear_267_221" x1="875.653" y1="349.571" x2="871.094" y2="312.768" gradientUnits="userSpaceOnUse">
<stop stop-color="white"/>
<stop offset="1"/>
</linearGradient>
<linearGradient id="paint94_linear_267_221" x1="874.104" y1="338.321" x2="869.514" y2="301.264" gradientUnits="userSpaceOnUse">
<stop stop-color="white"/>
<stop offset="1"/>
</linearGradient>
<linearGradient id="paint95_linear_267_221" x1="872.569" y1="327.15" x2="867.934" y2="289.733" gradientUnits="userSpaceOnUse">
<stop stop-color="white"/>
<stop offset="1"/>
</linearGradient>
<linearGradient id="paint96_linear_267_221" x1="871.041" y1="316.042" x2="866.351" y2="278.169" gradientUnits="userSpaceOnUse">
<stop stop-color="white"/>
<stop offset="1"/>
</linearGradient>
<linearGradient id="paint97_linear_267_221" x1="869.523" y1="305.004" x2="864.765" y2="266.583" gradientUnits="userSpaceOnUse">
<stop stop-color="white"/>
<stop offset="1"/>
</linearGradient>
<linearGradient id="paint98_linear_267_221" x1="868.012" y1="294.012" x2="863.177" y2="254.967" gradientUnits="userSpaceOnUse">
<stop stop-color="white"/>
<stop offset="1"/>
</linearGradient>
<linearGradient id="paint99_linear_267_221" x1="866.509" y1="283.069" x2="861.588" y2="243.322" gradientUnits="userSpaceOnUse">
<stop stop-color="white"/>
<stop offset="1"/>
</linearGradient>
<linearGradient id="paint100_linear_267_221" x1="865.01" y1="272.162" x2="859.995" y2="231.644" gradientUnits="userSpaceOnUse">
<stop stop-color="white"/>
<stop offset="1"/>
</linearGradient>
<linearGradient id="paint101_linear_267_221" x1="863.515" y1="261.292" x2="858.397" y2="219.933" gradientUnits="userSpaceOnUse">
<stop stop-color="white"/>
<stop offset="1"/>
</linearGradient>
<linearGradient id="paint102_linear_267_221" x1="862.027" y1="250.455" x2="856.797" y2="208.188" gradientUnits="userSpaceOnUse">
<stop stop-color="white"/>
<stop offset="1"/>
</linearGradient>
<linearGradient id="paint103_linear_267_221" x1="860.541" y1="239.638" x2="855.192" y2="196.4" gradientUnits="userSpaceOnUse">
<stop stop-color="white"/>
<stop offset="1"/>
</linearGradient>
<linearGradient id="paint104_linear_267_221" x1="859.057" y1="228.847" x2="853.581" y2="184.569" gradientUnits="userSpaceOnUse">
<stop stop-color="white"/>
<stop offset="1"/>
</linearGradient>
<linearGradient id="paint105_linear_267_221" x1="857.578" y1="218.075" x2="851.966" y2="172.687" gradientUnits="userSpaceOnUse">
<stop stop-color="white"/>
<stop offset="1"/>
</linearGradient>
<linearGradient id="paint106_linear_267_221" x1="856.1" y1="207.322" x2="850.342" y2="160.736" gradientUnits="userSpaceOnUse">
<stop stop-color="white"/>
<stop offset="1"/>
</linearGradient>
<linearGradient id="paint107_linear_267_221" x1="854.627" y1="196.589" x2="848.715" y2="148.756" gradientUnits="userSpaceOnUse">
<stop stop-color="white"/>
<stop offset="1"/>
</linearGradient>
<linearGradient id="paint108_linear_267_221" x1="853.154" y1="185.869" x2="847.08" y2="136.71" gradientUnits="userSpaceOnUse">
<stop stop-color="white"/>
<stop offset="1"/>
</linearGradient>
<linearGradient id="paint109_linear_267_221" x1="851.688" y1="175.188" x2="845.433" y2="124.545" gradientUnits="userSpaceOnUse">
<stop stop-color="#E6E6E6"/>
<stop offset="1"/>
</linearGradient>
<linearGradient id="paint110_linear_267_221" x1="850.216" y1="164.468" x2="843.741" y2="112.032" gradientUnits="userSpaceOnUse">
<stop stop-color="#D5D5D5"/>
<stop offset="1"/>
</linearGradient>
</defs>
</svg>
